<svg xmlns="http://www.w3.org/2000/svg" viewBox="0 0 160 640" width="160" height="640">
  <rect x="0" y="0" width="160" height="640" fill="#2b271f"/>
  <rect x="4" y="4" width="152" height="632" fill="none" stroke="#4a4335" stroke-width="2"/>
  <circle cx="14" cy="14" r="4" fill="#141210"/>
  <circle cx="146" cy="14" r="4" fill="#141210"/>
  <circle cx="14" cy="626" r="4" fill="#141210"/>
  <circle cx="146" cy="626" r="4" fill="#141210"/>
  <text x="80" y="40" text-anchor="middle" fill="#e8a33d" font-family="IBM Plex Mono, monospace" font-size="14" letter-spacing="1">2CVADD-HQ</text>
  <circle cx="20" cy="60" r="9" fill="#141210" stroke="#8a8270" stroke-width="1.5"/>
  <text x="37" y="64" text-anchor="start" fill="#9a9282" font-family="IBM Plex Mono, monospace" font-size="11">AN A1</text>
  <circle cx="20" cy="90" r="9" fill="#141210" stroke="#8a8270" stroke-width="1.5"/>
  <text x="37" y="94" text-anchor="start" fill="#9a9282" font-family="IBM Plex Mono, monospace" font-size="11">IN A2</text>
  <circle cx="20" cy="120" r="9" fill="#141210" stroke="#8a8270" stroke-width="1.5"/>
  <text x="37" y="124" text-anchor="start" fill="#9a9282" font-family="IBM Plex Mono, monospace" font-size="11">IN A3</text>
  <circle cx="20" cy="150" r="9" fill="#141210" stroke="#8a8270" stroke-width="1.5"/>
  <text x="37" y="154" text-anchor="start" fill="#9a9282" font-family="IBM Plex Mono, monospace" font-size="11">IN A4 NG</text>
  <circle cx="20" cy="180" r="9" fill="#141210" stroke="#8a8270" stroke-width="1.5"/>
  <text x="37" y="184" text-anchor="start" fill="#9a9282" font-family="IBM Plex Mono, monospace" font-size="11">IN B1</text>
  <circle cx="20" cy="210" r="9" fill="#141210" stroke="#8a8270" stroke-width="1.5"/>
  <text x="37" y="214" text-anchor="start" fill="#9a9282" font-family="IBM Plex Mono, monospace" font-size="11">IN B2</text>
  <circle cx="20" cy="240" r="9" fill="#141210" stroke="#8a8270" stroke-width="1.5"/>
  <text x="37" y="244" text-anchor="start" fill="#9a9282" font-family="IBM Plex Mono, monospace" font-size="11">IN B3</text>
  <circle cx="20" cy="270" r="9" fill="#141210" stroke="#8a8270" stroke-width="1.5"/>
  <circle cx="140" cy="60" r="9" fill="#141210" stroke="#8a8270" stroke-width="1.5"/>
  <text x="123" y="64" text-anchor="end" fill="#9a9282" font-family="IBM Plex Mono, monospace" font-size="11">OUT A</text>
  <circle cx="140" cy="90" r="9" fill="#141210" stroke="#8a8270" stroke-width="1.5"/>
  <text x="123" y="94" text-anchor="end" fill="#9a9282" font-family="IBM Plex Mono, monospace" font-size="11">OUT A</text>
  <circle cx="140" cy="120" r="9" fill="#141210" stroke="#8a8270" stroke-width="1.5"/>
  <text x="123" y="124" text-anchor="end" fill="#9a9282" font-family="IBM Plex Mono, monospace" font-size="11">OUT B</text>
  <circle cx="140" cy="150" r="9" fill="#141210" stroke="#8a8270" stroke-width="1.5"/>
  <text x="123" y="154" text-anchor="end" fill="#9a9282" font-family="IBM Plex Mono, monospace" font-size="11">OT B</text>
  <circle cx="140" cy="180" r="9" fill="#141210" stroke="#8a8270" stroke-width="1.5"/>
  <text x="123" y="184" text-anchor="end" fill="#9a9282" font-family="IBM Plex Mono, monospace" font-size="11">MULT</text>
  <circle cx="140" cy="210" r="9" fill="#141210" stroke="#8a8270" stroke-width="1.5"/>
  <text x="123" y="214" text-anchor="end" fill="#9a9282" font-family="IBM Plex Mono, monospace" font-size="11">MULT</text>
  <circle cx="140" cy="240" r="9" fill="#141210" stroke="#8a8270" stroke-width="1.5"/>
  <text x="123" y="244" text-anchor="end" fill="#9a9282" font-family="IBM Plex Mono, monospace" font-size="11">MULT</text>
  <circle cx="140" cy="270" r="9" fill="#141210" stroke="#8a8270" stroke-width="1.5"/>
  <text x="123" y="274" text-anchor="end" fill="#9a9282" font-family="IBM Plex Mono, monospace" font-size="11">MULT</text>
</svg>