<svg xmlns="http://www.w3.org/2000/svg" viewBox="0 0 160 640" width="160" height="640">
  <rect x="0" y="0" width="160" height="640" fill="#2b271f"/>
  <rect x="4" y="4" width="152" height="632" fill="none" stroke="#4a4335" stroke-width="2"/>
  <circle cx="14" cy="14" r="4" fill="#141210"/>
  <circle cx="146" cy="14" r="4" fill="#141210"/>
  <circle cx="14" cy="626" r="4" fill="#141210"/>
  <circle cx="146" cy="626" r="4" fill="#141210"/>
  <text x="80" y="40" text-anchor="middle" fill="#e8a33d" font-family="IBM Plex Mono, monospace" font-size="14" letter-spacing="1">2ATT/CV</text>
  <circle cx="20" cy="60" r="9" fill="#141210" stroke="#8a8270" stroke-width="1.5"/>
  <text x="37" y="64" text-anchor="start" fill="#9a9282" font-family="IBM Plex Mono, monospace" font-size="11">IN 1</text>
  <circle cx="20" cy="90" r="9" fill="#141210" stroke="#8a8270" stroke-width="1.5"/>
  <text x="37" y="94" text-anchor="start" fill="#9a9282" font-family="IBM Plex Mono, monospace" font-size="11">IN 2</text>
  <circle cx="20" cy="120" r="9" fill="#141210" stroke="#8a8270" stroke-width="1.5"/>
  <circle cx="20" cy="150" r="9" fill="#141210" stroke="#8a8270" stroke-width="1.5"/>
  <circle cx="20" cy="180" r="9" fill="#141210" stroke="#8a8270" stroke-width="1.5"/>
  <circle cx="20" cy="210" r="9" fill="#141210" stroke="#8a8270" stroke-width="1.5"/>
  <circle cx="20" cy="240" r="9" fill="#141210" stroke="#8a8270" stroke-width="1.5"/>
  <text x="37" y="244" text-anchor="start" fill="#9a9282" font-family="IBM Plex Mono, monospace" font-size="11">BS CV</text>
  <circle cx="20" cy="270" r="9" fill="#141210" stroke="#8a8270" stroke-width="1.5"/>
  <text x="37" y="274" text-anchor="start" fill="#9a9282" font-family="IBM Plex Mono, monospace" font-size="11">BS CTRL</text>
  <circle cx="140" cy="60" r="9" fill="#141210" stroke="#8a8270" stroke-width="1.5"/>
  <text x="123" y="64" text-anchor="end" fill="#9a9282" font-family="IBM Plex Mono, monospace" font-size="11">OUT 1</text>
  <circle cx="140" cy="90" r="9" fill="#141210" stroke="#8a8270" stroke-width="1.5"/>
  <text x="123" y="94" text-anchor="end" fill="#9a9282" font-family="IBM Plex Mono, monospace" font-size="11">OUT 1</text>
  <circle cx="140" cy="120" r="9" fill="#141210" stroke="#8a8270" stroke-width="1.5"/>
  <text x="123" y="124" text-anchor="end" fill="#9a9282" font-family="IBM Plex Mono, monospace" font-size="11">INV 1</text>
  <circle cx="140" cy="150" r="9" fill="#141210" stroke="#8a8270" stroke-width="1.5"/>
  <text x="123" y="154" text-anchor="end" fill="#9a9282" font-family="IBM Plex Mono, monospace" font-size="11">INV 1</text>
  <circle cx="140" cy="180" r="9" fill="#141210" stroke="#8a8270" stroke-width="1.5"/>
  <text x="123" y="184" text-anchor="end" fill="#9a9282" font-family="IBM Plex Mono, monospace" font-size="11">OUT 2</text>
  <circle cx="140" cy="210" r="9" fill="#141210" stroke="#8a8270" stroke-width="1.5"/>
  <text x="123" y="214" text-anchor="end" fill="#9a9282" font-family="IBM Plex Mono, monospace" font-size="11">OUT 2</text>
  <circle cx="140" cy="240" r="9" fill="#141210" stroke="#8a8270" stroke-width="1.5"/>
  <text x="123" y="244" text-anchor="end" fill="#9a9282" font-family="IBM Plex Mono, monospace" font-size="11">INV 2</text>
  <circle cx="140" cy="270" r="9" fill="#141210" stroke="#8a8270" stroke-width="1.5"/>
  <text x="123" y="274" text-anchor="end" fill="#9a9282" font-family="IBM Plex Mono, monospace" font-size="11">INV 2</text>
  <circle cx="50" cy="570" r="12" fill="#1e1c18" stroke="#8a8270" stroke-width="1.5"/>
  <line x1="50" y1="564" x2="50" y2="560" stroke="#c8bfaa" stroke-width="1.5" stroke-linecap="round"/>
  <text x="50" y="600" text-anchor="middle" fill="#9a9282" font-family="IBM Plex Mono, monospace" font-size="11">LEVEL 2</text>
  <circle cx="50" cy="500" r="12" fill="#1e1c18" stroke="#8a8270" stroke-width="1.5"/>
  <line x1="50" y1="494" x2="50" y2="490" stroke="#c8bfaa" stroke-width="1.5" stroke-linecap="round"/>
  <text x="50" y="530" text-anchor="middle" fill="#9a9282" font-family="IBM Plex Mono, monospace" font-size="11">LEVEL 1</text>
  <rect x="45" y="396" width="10" height="28" rx="3" fill="#1e1c18" stroke="#8a8270" stroke-width="1.5"/>
  <rect x="46.5" y="398" width="7" height="11" rx="2" fill="#8a8270"/>
  <text x="50" y="388" text-anchor="middle" fill="#9a9282" font-family="IBM Plex Mono, monospace" font-size="11">IN 1</text>
  <text x="50" y="442" text-anchor="middle" fill="#9a9282" font-family="IBM Plex Mono, monospace" font-size="11">+5V</text>
  <rect x="105" y="396" width="10" height="28" rx="3" fill="#1e1c18" stroke="#8a8270" stroke-width="1.5"/>
  <rect x="106.5" y="398" width="7" height="11" rx="2" fill="#8a8270"/>
  <text x="110" y="388" text-anchor="middle" fill="#9a9282" font-family="IBM Plex Mono, monospace" font-size="11">IN 2</text>
  <text x="110" y="442" text-anchor="middle" fill="#9a9282" font-family="IBM Plex Mono, monospace" font-size="11">+5V</text>
</svg>